<svg height="152" viewBox="0 0 152 152" width="152" xmlns="http://www.w3.org/2000/svg"><path d="m152 150v2h-152v-2h28v-8h-20v-20h-8v-2h8v-40h42v20h20v42h-40v8h90v-8h-40v-42h20v-20h42v40h8v-90h-8v40h-42v-20h-20v-42h40v-8h2v8h20v20h8v-28h2zm-2 0v-28h-8v20h-20v8zm-68-120v18h18v-18zm20 18h20v20h18v-38h-20v-20h-38v18h20zm0 2v18h18v-18zm20-22h18v-18h-18zm-54 92v-18h-18v18zm-20-18h-20v-20h-18v38h20v20h38v-18h-20zm0-2v-18h-18v18zm-20 22h-18v18h18zm54 0v18h38v-20h20v-38h-18v20h-20v20zm18-20h-18v18h18zm2-2h18v-18h-18zm20 40v-18h18v18zm-92-140h-2v8h-20v20h-8v2h8v40h42v-20h20v-42h-40zm20 48h18v-18h-18zm18-20h-20v20h-20v20h-18v-38h20v-20h38zm-38 22h18v18h-18zm-2-40h-18v18h18z" fill-rule="evenodd"/></svg>