<svg height="1080" viewBox="0 0 1920 1080" width="1920" xmlns="http://www.w3.org/2000/svg" xmlns:xlink="http://www.w3.org/1999/xlink"><linearGradient id="a" x1="0" x2="1" y1="0" y2="1"><stop offset="0" stop-color="#c09009"/><stop offset=".55" stop-color="#dea60a"/><stop offset="1" stop-color="#ffc40c"/></linearGradient><path d="m0 0h1920v1080h-1920z" fill="url(#a)"/><path d="m0 4 75-4 83 108z" fill="#c69409" opacity=".92"/><path d="m0 4 158 104-158-23z" fill="#d39e0a" opacity=".92"/><path d="m75 0h193l-110 108z" fill="#cc990a" opacity=".92"/><path d="m268 0 24 109-134-1z" fill="#c49209" opacity=".92"/><path d="m268 0h138l-73 115z" fill="#d19c0a" opacity=".92"/><path d="m268 0 65 115-41-6z" fill="#c69409" opacity=".92"/><path d="m406 0 99 48-172 67z" fill="#c39209" opacity=".92"/><path d="m505 48-22 65-150 2z" fill="#dba40a" opacity=".92"/><path d="m505 48 63-48-3 175z" fill="#d49f0a" opacity=".92"/><path d="m505 48 60 127-82-62z" fill="#dca50a" opacity=".92"/><path d="m568 0h120l-123 175z" fill="#c39209" opacity=".92"/><path d="m688 0 78 124-201 51z" fill="#dfa70b" opacity=".92"/><path d="m688 0h173l-29 159z" fill="#ca970a" opacity=".92"/><path d="m688 0 144 159-66-35z" fill="#d8a20a" opacity=".92"/><path d="m861 0h79l-108 159z" fill="#dfa70b" opacity=".92"/><path d="m940 0 65 105-173 54z" fill="#d7a10a" opacity=".92"/><path d="m940 0 172 23-9 149z" fill="#dda50a" opacity=".92"/><path d="m940 0 163 172-98-67z" fill="#d9a20a" opacity=".92"/><path d="m1112 23 42 3-51 146z" fill="#e2a90b" opacity=".92"/><path d="m1154 26 6 137-57 9z" fill="#d39e0a" opacity=".92"/><path d="m1154 26 195-26 25 89z" fill="#d29d0a" opacity=".92"/><path d="m1154 26 220 63-214 74z" fill="#dba40a" opacity=".92"/><path d="m1349 0h74l-49 89z" fill="#e4aa0b" opacity=".92"/><path d="m1423 0 72 164-121-75z" fill="#d5a00a" opacity=".92"/><path d="m1423 0 114 41-25 65z" fill="#e4aa0b" opacity=".92"/><path d="m1423 0 89 106-17 58z" fill="#e7ad0b" opacity=".92"/><path d="m1537 41 193-13-218 78z" fill="#ecb00b" opacity=".92"/><path d="m1730 28-45 70-173 8z" fill="#ebb00b" opacity=".92"/><path d="m1730 28 124-28-42 77z" fill="#ebb00b" opacity=".92"/><path d="m1730 28 82 49-127 21z" fill="#e0a70b" opacity=".92"/><path d="m1854 0 65 9-107 68z" fill="#d8a10a" opacity=".92"/><path d="m1919 9-19 153-88-85z" fill="#dfa60b" opacity=".92"/><path d="m0 85 158 23-158 126z" fill="#c89509" opacity=".92"/><path d="m158 108-21 88-137 38z" fill="#c99609" opacity=".92"/><path d="m158 108 134 1-10 98z" fill="#c79509" opacity=".92"/><path d="m158 108 124 99-145-11z" fill="#d39e0a" opacity=".92"/><path d="m292 109 41 6-51 92z" fill="#ca970a" opacity=".92"/><path d="m333 115 6 145-57-53z" fill="#ce9a0a" opacity=".92"/><path d="m333 115 150-2-49 82z" fill="#dda50a" opacity=".92"/><path d="m333 115 101 80-95 65z" fill="#ce9a0a" opacity=".92"/><path d="m483 113 82 62-131 20z" fill="#ce9a0a" opacity=".92"/><path d="m565 175 82 92-213-72z" fill="#d29d0a" opacity=".92"/><path d="m565 175 201-51-23 132z" fill="#cd990a" opacity=".92"/><path d="m565 175 178 81-96 11z" fill="#d09c0a" opacity=".92"/><path d="m766 124 66 35-89 97z" fill="#d8a20a" opacity=".92"/><path d="m832 159 48 124-137-27z" fill="#dda50a" opacity=".92"/><path d="m832 159 173-54-36 133z" fill="#ca970a" opacity=".92"/><path d="m832 159 137 79-89 45z" fill="#e5ab0b" opacity=".92"/><path d="m1005 105 98 67-134 66z" fill="#d8a10a" opacity=".92"/><path d="m1103 172-70 75-64-9z" fill="#d9a20a" opacity=".92"/><path d="m1103 172 57-9 14 49z" fill="#e1a80b" opacity=".92"/><path d="m1103 172 71 40-141 35z" fill="#d29d0a" opacity=".92"/><path d="m1160 163 214-74-200 123z" fill="#e5ab0b" opacity=".92"/><path d="m1374 89-105 110-95 13z" fill="#ecb00b" opacity=".92"/><path d="m1374 89 121 75-72 96z" fill="#d19c0a" opacity=".92"/><path d="m1374 89 49 171-154-61z" fill="#d29d0a" opacity=".92"/><path d="m1495 164 17-58-89 154z" fill="#efb30b" opacity=".92"/><path d="m1512 106 73 175-162-21z" fill="#dca50a" opacity=".92"/><path d="m1512 106 173-8 4 171z" fill="#e8ad0b" opacity=".92"/><path d="m1512 106 177 163-104 12z" fill="#edb10b" opacity=".92"/><path d="m1685 98 127-21-123 192z" fill="#e2a90b" opacity=".92"/><path d="m1812 77-56 176-67 16z" fill="#efb30b" opacity=".92"/><path d="m1812 77 88 85-32 97z" fill="#f4b60c" opacity=".92"/><path d="m1812 77 56 182-112-6z" fill="#e1a80b" opacity=".92"/><path d="m0 234 137-38 6 125z" fill="#c89509" opacity=".92"/><path d="m0 234 143 87-118-1z" fill="#c79509" opacity=".92"/><path d="m137 196 145 11-139 114z" fill="#ce9a0a" opacity=".92"/><path d="m282 207-54 155-85-41z" fill="#cc990a" opacity=".92"/><path d="m282 207 57 53-33 61z" fill="#cc980a" opacity=".92"/><path d="m282 207 24 114-78 41z" fill="#dca50a" opacity=".92"/><path d="m339 260 95-65-128 126z" fill="#dba40a" opacity=".92"/><path d="m434 195-6 110-122 16z" fill="#d7a10a" opacity=".92"/><path d="m434 195 213 72-22 80z" fill="#c59409" opacity=".92"/><path d="m434 195 191 152-197-42z" fill="#c79509" opacity=".92"/><path d="m647 267 96-11-118 91z" fill="#d5a00a" opacity=".92"/><path d="m743 256 3 96-121-5z" fill="#dba40a" opacity=".92"/><path d="m743 256 137 27-30 58z" fill="#cb980a" opacity=".92"/><path d="m743 256 107 85-104 11z" fill="#d49e0a" opacity=".92"/><path d="m880 283 89-45-119 103z" fill="#dda50a" opacity=".92"/><path d="m969 238v116l-119-13z" fill="#e6ac0b" opacity=".92"/><path d="m969 238 64 9 97 119z" fill="#e5ab0b" opacity=".92"/><path d="m969 238 161 128-161-12z" fill="#dca40a" opacity=".92"/><path d="m1033 247 141-35-44 154z" fill="#dba40a" opacity=".92"/><path d="m1174 212 30 119-74 35z" fill="#e8ad0b" opacity=".92"/><path d="m1174 212 95-13 101 210z" fill="#d39e0a" opacity=".92"/><path d="m1174 212 196 197-166-78z" fill="#d39e0a" opacity=".92"/><path d="m1269 199 154 61-53 149z" fill="#e3aa0b" opacity=".92"/><path d="m1423 260 10 104-63 45z" fill="#d9a20a" opacity=".92"/><path d="m1423 260 162 21-57 85z" fill="#dca40a" opacity=".92"/><path d="m1423 260 105 106-95-2z" fill="#e9ae0b" opacity=".92"/><path d="m1585 281 104-12-161 97z" fill="#d9a30a" opacity=".92"/><path d="m1689 269-30 66-131 31z" fill="#e9ae0b" opacity=".92"/><path d="m1689 269 67-16 66 55z" fill="#dba40a" opacity=".92"/><path d="m1689 269 133 39-163 27z" fill="#eaaf0b" opacity=".92"/><path d="m1756 253 112 6-46 49z" fill="#e5ab0b" opacity=".92"/><path d="m1868 259 52 135-98-86z" fill="#f9bb0c" opacity=".92"/><path d="m25 320 118 1-98 137z" fill="#bd8e09" opacity=".92"/><path d="m143 321 3 189-101-52z" fill="#ce9a0a" opacity=".92"/><path d="m143 321 85 41 32 134z" fill="#daa30a" opacity=".92"/><path d="m143 321 117 175-114 14z" fill="#d6a00a" opacity=".92"/><path d="m228 362 78-41-46 175z" fill="#daa30a" opacity=".92"/><path d="m306 321 18 131-64 44z" fill="#daa30a" opacity=".92"/><path d="m306 321 122-16 43 215z" fill="#d19c0a" opacity=".92"/><path d="m306 321 165 199-147-68z" fill="#e2a90b" opacity=".92"/><path d="m428 305 197 42-154 173z" fill="#e1a80b" opacity=".92"/><path d="m625 347 4 162-158 11z" fill="#e4aa0b" opacity=".92"/><path d="m625 347 121 5-52 85z" fill="#d8a10a" opacity=".92"/><path d="m625 347 69 90-65 72z" fill="#d7a10a" opacity=".92"/><path d="m746 352 104-11-156 96z" fill="#e4ab0b" opacity=".92"/><path d="m850 341 35 95-191 1z" fill="#dba40a" opacity=".92"/><path d="m850 341 119 13-25 134z" fill="#d9a20a" opacity=".92"/><path d="m850 341 94 147-59-52z" fill="#e9ae0b" opacity=".92"/><path d="m969 354 161 12-186 122z" fill="#ecb10b" opacity=".92"/><path d="m1130 366-51 76-135 46z" fill="#dda50a" opacity=".92"/><path d="m1130 366 74-35 26 126z" fill="#e0a80b" opacity=".92"/><path d="m1130 366 100 91-151-15z" fill="#e6ac0b" opacity=".92"/><path d="m1204 331 166 78-140 48z" fill="#e7ad0b" opacity=".92"/><path d="m1370 409-49 110-91-62z" fill="#efb30b" opacity=".92"/><path d="m1370 409 63-45-31 93z" fill="#eeb20b" opacity=".92"/><path d="m1370 409 32 48-81 62z" fill="#f1b40b" opacity=".92"/><path d="m1433 364 95 2-126 91z" fill="#edb20b" opacity=".92"/><path d="m1528 366 67 136-193-45z" fill="#f4b70c" opacity=".92"/><path d="m1528 366 131-31 20 124z" fill="#dda50a" opacity=".92"/><path d="m1528 366 151 93-84 43z" fill="#eaaf0b" opacity=".92"/><path d="m1659 335 163-27-143 151z" fill="#f2b50b" opacity=".92"/><path d="m1822 308-32 147-111 4z" fill="#e6ac0b" opacity=".92"/><path d="m1822 308 98 86v98z" fill="#ebb00b" opacity=".92"/><path d="m1822 308 98 184-130-37z" fill="#f5b70c" opacity=".92"/><path d="m45 458 101 52 2 101z" fill="#ca970a" opacity=".92"/><path d="m45 458 103 153-148 41z" fill="#dea60b" opacity=".92"/><path d="m146 510 114-14-112 115z" fill="#d39e0a" opacity=".92"/><path d="m260 496-72 144-40-29z" fill="#c89509" opacity=".92"/><path d="m260 496 64-44 6 152z" fill="#d7a10a" opacity=".92"/><path d="m260 496 70 108-142 36z" fill="#d49f0a" opacity=".92"/><path d="m324 452 147 68-141 84z" fill="#e4aa0b" opacity=".92"/><path d="m471 520-29 108-112-24z" fill="#e5ab0b" opacity=".92"/><path d="m471 520 158-11 20 142z" fill="#cf9b0a" opacity=".92"/><path d="m471 520 178 131-207-23z" fill="#dca40a" opacity=".92"/><path d="m629 509 65-72-45 214z" fill="#e8ae0b" opacity=".92"/><path d="m694 437 8 218-53-4z" fill="#e6ac0b" opacity=".92"/><path d="m694 437 191-1-79 128z" fill="#e8ae0b" opacity=".92"/><path d="m694 437 112 127-104 91z" fill="#daa30a" opacity=".92"/><path d="m885 436 59 52-138 76z" fill="#e4aa0b" opacity=".92"/><path d="m944 488 11 132-149-56z" fill="#daa30a" opacity=".92"/><path d="m944 488 135-46-16 129z" fill="#dfa70b" opacity=".92"/><path d="m944 488 119 83-108 49z" fill="#e2a90b" opacity=".92"/><path d="m1079 442 151 15-167 114z" fill="#d19c0a" opacity=".92"/><path d="m1230 457-53 133-114-19z" fill="#e1a90b" opacity=".92"/><path d="m1230 457 91 62 54 100z" fill="#e7ad0b" opacity=".92"/><path d="m1230 457 145 162-198-29z" fill="#daa30a" opacity=".92"/><path d="m1321 519 81-62-27 162z" fill="#d6a00a" opacity=".92"/><path d="m1402 457 7 166-34-4z" fill="#d6a00a" opacity=".92"/><path d="m1402 457 193 45-41 75z" fill="#e4aa0b" opacity=".92"/><path d="m1402 457 152 120-145 46z" fill="#e9ae0b" opacity=".92"/><path d="m1595 502 84-43-125 118z" fill="#eaaf0b" opacity=".92"/><path d="m1679 459 33 123-158-5z" fill="#f6b80c" opacity=".92"/><path d="m1679 459 111-4 60 124z" fill="#fabb0c" opacity=".92"/><path d="m1679 459 171 120-138 3z" fill="#ecb00b" opacity=".92"/><path d="m1790 455 130 37-70 87z" fill="#fbbb0c" opacity=".92"/><path d="m1920 492-31 160-39-73z" fill="#e3aa0b" opacity=".92"/><path d="m0 652 148-41-148 67z" fill="#daa30a" opacity=".92"/><path d="m148 611-55 86-93-19z" fill="#ca970a" opacity=".92"/><path d="m148 611 40 29 49 36z" fill="#cb980a" opacity=".92"/><path d="m148 611 89 65-144 21z" fill="#cc990a" opacity=".92"/><path d="m188 640 142-36-93 72z" fill="#c79509" opacity=".92"/><path d="m330 604-24 120-69-48z" fill="#e0a70b" opacity=".92"/><path d="m330 604 112 24-12 134z" fill="#ce9a0a" opacity=".92"/><path d="m330 604 100 158-124-38z" fill="#d19d0a" opacity=".92"/><path d="m442 628 207 23-219 111z" fill="#e8ae0b" opacity=".92"/><path d="m649 651-9 31-210 80z" fill="#e7ad0b" opacity=".92"/><path d="m649 651 53 4-36 61z" fill="#d9a20a" opacity=".92"/><path d="m649 651 17 65-26-34z" fill="#d7a10a" opacity=".92"/><path d="m702 655 104-91-140 152z" fill="#dda50a" opacity=".92"/><path d="m806 564 64 175-204-23z" fill="#d8a10a" opacity=".92"/><path d="m806 564 149 56-23 84z" fill="#e3aa0b" opacity=".92"/><path d="m806 564 126 140-62 35z" fill="#e2a90b" opacity=".92"/><path d="m955 620 108-49-131 133z" fill="#e5ab0b" opacity=".92"/><path d="m1063 571 35 128-166 5z" fill="#e8ae0b" opacity=".92"/><path d="m1063 571 114 19 36 126z" fill="#f1b40b" opacity=".92"/><path d="m1063 571 150 145-115-17z" fill="#e8ad0b" opacity=".92"/><path d="m1177 590 198 29-162 97z" fill="#e6ac0b" opacity=".92"/><path d="m1375 619-95 129-67-32z" fill="#e7ad0b" opacity=".92"/><path d="m1375 619 34 4-14 111z" fill="#d8a20a" opacity=".92"/><path d="m1375 619 20 115-115 14z" fill="#eeb20b" opacity=".92"/><path d="m1409 623 145-46-159 157z" fill="#ecb10b" opacity=".92"/><path d="m1554 577 4 120-163 37z" fill="#efb30b" opacity=".92"/><path d="m1554 577 158 5-79 187z" fill="#e0a70b" opacity=".92"/><path d="m1554 577 79 192-75-72z" fill="#f0b30b" opacity=".92"/><path d="m1712 582 138-3-217 190z" fill="#e3a90b" opacity=".92"/><path d="m1850 579-80 135-137 55z" fill="#e7ad0b" opacity=".92"/><path d="m1850 579 39 73 31 85z" fill="#e4ab0b" opacity=".92"/><path d="m1850 579 70 158-150-23z" fill="#eaaf0b" opacity=".92"/><path d="m0 678 93 19-4 106z" fill="#d8a10a" opacity=".92"/><path d="m0 678 89 125-89 65z" fill="#cd990a" opacity=".92"/><path d="m93 697 144-21-148 127z" fill="#ca970a" opacity=".92"/><path d="m237 676-42 187-106-60z" fill="#c79509" opacity=".92"/><path d="m237 676 69 48 20 144z" fill="#dda50a" opacity=".92"/><path d="m237 676 89 192-131-5z" fill="#daa30a" opacity=".92"/><path d="m306 724 124 38-104 106z" fill="#d09c0a" opacity=".92"/><path d="m430 762 37 132-141-26z" fill="#e1a80b" opacity=".92"/><path d="m430 762 210-80-42 151z" fill="#cc990a" opacity=".92"/><path d="m430 762 168 71-131 61z" fill="#ce9a0a" opacity=".92"/><path d="m640 682 26 34-68 117z" fill="#eaaf0b" opacity=".92"/><path d="m666 716 89 179-157-62z" fill="#e8ad0b" opacity=".92"/><path d="m666 716 204 23-68 135z" fill="#d49e0a" opacity=".92"/><path d="m666 716 136 158-47 21z" fill="#dda50a" opacity=".92"/><path d="m870 739 62-35-130 170z" fill="#daa30a" opacity=".92"/><path d="m932 704-21 104-109 66z" fill="#dba40a" opacity=".92"/><path d="m932 704 166-5-72 159z" fill="#e3aa0b" opacity=".92"/><path d="m932 704 94 154-115-50z" fill="#e6ac0b" opacity=".92"/><path d="m1098 699 115 17-187 142z" fill="#efb30b" opacity=".92"/><path d="m1213 716-12 160-175-18z" fill="#e2a90b" opacity=".92"/><path d="m1213 716 67 32 49 79z" fill="#f3b60b" opacity=".92"/><path d="m1213 716 116 111-128 49z" fill="#daa30a" opacity=".92"/><path d="m1280 748 115-14-66 93z" fill="#f5b70c" opacity=".92"/><path d="m1395 734 15 73-81 20z" fill="#e8ae0b" opacity=".92"/><path d="m1395 734 163-37 44 124z" fill="#f7b90c" opacity=".92"/><path d="m1395 734 207 87-192-14z" fill="#eaaf0b" opacity=".92"/><path d="m1558 697 75 72-31 52z" fill="#e6ac0b" opacity=".92"/><path d="m1633 769 4 42-35 10z" fill="#e6ac0b" opacity=".92"/><path d="m1633 769 137-55 34 95z" fill="#fdbd0c" opacity=".92"/><path d="m1633 769 171 40-167 2z" fill="#f1b40b" opacity=".92"/><path d="m1770 714 150 23-116 72z" fill="#edb10b" opacity=".92"/><path d="m1920 737v78l-116-6z" fill="#ffbe0c" opacity=".92"/><path d="m0 868 89-65-89 144z" fill="#e0a80b" opacity=".92"/><path d="m89 803v114l-89 30z" fill="#c89609" opacity=".92"/><path d="m89 803 106 60 13 102z" fill="#d19c0a" opacity=".92"/><path d="m89 803 119 162-119-48z" fill="#daa30a" opacity=".92"/><path d="m195 863 131 5-118 97z" fill="#d59f0a" opacity=".92"/><path d="m326 868 51 55-169 42z" fill="#d7a10a" opacity=".92"/><path d="m326 868 141 26 58 102z" fill="#dca40a" opacity=".92"/><path d="m326 868 199 128-148-73z" fill="#e2a90b" opacity=".92"/><path d="m467 894 131-61-73 163z" fill="#dda50a" opacity=".92"/><path d="m598 833 13 88-86 75z" fill="#dba30a" opacity=".92"/><path d="m598 833 157 62-27 19z" fill="#e4ab0b" opacity=".92"/><path d="m598 833 130 81-117 7z" fill="#d09c0a" opacity=".92"/><path d="m755 895 47-21-74 40z" fill="#d19d0a" opacity=".92"/><path d="m802 874 32 62-106-22z" fill="#d49e0a" opacity=".92"/><path d="m802 874 109-66 98 161z" fill="#e7ad0b" opacity=".92"/><path d="m802 874 207 95-175-33z" fill="#f2b50b" opacity=".92"/><path d="m911 808 115 50-17 111z" fill="#f3b60b" opacity=".92"/><path d="m1026 858 80 115-97-4z" fill="#edb10b" opacity=".92"/><path d="m1026 858 175 18-49 139z" fill="#dda50a" opacity=".92"/><path d="m1026 858 126 157-46-42z" fill="#e7ad0b" opacity=".92"/><path d="m1201 876 128-49-177 188z" fill="#daa30a" opacity=".92"/><path d="m1329 827 41 136-218 52z" fill="#ebb00b" opacity=".92"/><path d="m1329 827 81-20-7 119z" fill="#f8b90c" opacity=".92"/><path d="m1329 827 74 99-33 37z" fill="#f0b30b" opacity=".92"/><path d="m1410 807 192 14-199 105z" fill="#dea60b" opacity=".92"/><path d="m1602 821-39 145-160-40z" fill="#e8ae0b" opacity=".92"/><path d="m1602 821 35-10 12 176z" fill="#f7b90c" opacity=".92"/><path d="m1602 821 47 166-86-21z" fill="#f0b30b" opacity=".92"/><path d="m1637 811 167-2-155 178z" fill="#ebb00b" opacity=".92"/><path d="m1804 809-48 123-107 55z" fill="#fdbd0c" opacity=".92"/><path d="m1804 809 116 6v162z" fill="#f3b50b" opacity=".92"/><path d="m1804 809 116 168-164-45z" fill="#edb10b" opacity=".92"/><path d="m0 947 89-30 42 116z" fill="#ce9a0a" opacity=".92"/><path d="m0 947 131 86-103 29z" fill="#d29d0a" opacity=".92"/><path d="m89 917 119 48-77 68z" fill="#e7ad0b" opacity=".92"/><path d="m208 965 5 86-82-18z" fill="#e3aa0b" opacity=".92"/><path d="m208 965 169-42v157z" fill="#d5a00a" opacity=".92"/><path d="m208 965 169 115-164-29z" fill="#d9a20a" opacity=".92"/><path d="m377 923 148 73-148 84z" fill="#ebb00b" opacity=".92"/><path d="m525 996-41 84h-107z" fill="#dba40a" opacity=".92"/><path d="m525 996 86-75-64 159z" fill="#d9a20a" opacity=".92"/><path d="m525 996 22 84h-63z" fill="#e9ae0b" opacity=".92"/><path d="m611 921 117-7-181 166z" fill="#e3aa0b" opacity=".92"/><path d="m728 914-42 160-139 6z" fill="#d9a20a" opacity=".92"/><path d="m728 914 106 22 44 144z" fill="#daa30a" opacity=".92"/><path d="m728 914 150 166-192-6z" fill="#e0a70b" opacity=".92"/><path d="m834 936 175 33-131 111z" fill="#f0b40b" opacity=".92"/><path d="m1009 969-32 93-99 18z" fill="#f4b60c" opacity=".92"/><path d="m1009 969 97 4-24 107z" fill="#f4b70c" opacity=".92"/><path d="m1009 969 73 111-105-18z" fill="#dfa70b" opacity=".92"/><path d="m1106 973 46 42-70 65z" fill="#eeb20b" opacity=".92"/><path d="m1152 1015 89 16-159 49z" fill="#efb20b" opacity=".92"/><path d="m1152 1015 218-52-16 86z" fill="#e0a70b" opacity=".92"/><path d="m1152 1015 202 34-113-18z" fill="#e5ab0b" opacity=".92"/><path d="m1370 963 33-37-49 123z" fill="#e3a90b" opacity=".92"/><path d="m1403 926 31 154-80-31z" fill="#ecb10b" opacity=".92"/><path d="m1403 926 160 40-38 114z" fill="#e5ab0b" opacity=".92"/><path d="m1403 926 122 154h-91z" fill="#f6b80c" opacity=".92"/><path d="m1563 966 86 21-124 93z" fill="#e4aa0b" opacity=".92"/><path d="m1649 987 50 62-174 31z" fill="#f0b40b" opacity=".92"/><path d="m1649 987 107-55 22 103z" fill="#f2b50b" opacity=".92"/><path d="m1649 987 129 48-79 14z" fill="#eaaf0b" opacity=".92"/><path d="m1756 932 164 45-142 58z" fill="#e6ac0b" opacity=".92"/><path d="m1920 977-23 53-119 5z" fill="#febe0c" opacity=".92"/></svg>