<svg height="1080" viewBox="0 0 1920 1080" width="1920" xmlns="http://www.w3.org/2000/svg" xmlns:xlink="http://www.w3.org/1999/xlink"><linearGradient id="a" x1="0" x2="1" y1="0" y2="1"><stop offset="0" stop-color="#2e245a"/><stop offset=".55" stop-color="#3a2e73"/><stop offset="1" stop-color="#47398c"/></linearGradient><path d="m0 0h1920v1080h-1920z" fill="url(#a)"/><path d="m0 0 129 10-2 141z" fill="#332965" opacity=".92"/><path d="m0 0 127 151-78 1z" fill="#322863" opacity=".92"/><path d="m129 10 138 45-140 96z" fill="#362b6c" opacity=".92"/><path d="m267 55-42 36-98 60z" fill="#362b6b" opacity=".92"/><path d="m267 55 51-55 37 97z" fill="#372c6d" opacity=".92"/><path d="m267 55 88 42-130-6z" fill="#372c6d" opacity=".92"/><path d="m318 0 183 24-146 73z" fill="#352a68" opacity=".92"/><path d="m501 24-32 86-114-13z" fill="#332966" opacity=".92"/><path d="m501 24 115-24 32 113z" fill="#352b6a" opacity=".92"/><path d="m501 24 147 89-179-3z" fill="#332965" opacity=".92"/><path d="m616 0 149 18-117 95z" fill="#342a68" opacity=".92"/><path d="m765 18-5 112-112-17z" fill="#392d71" opacity=".92"/><path d="m765 18 90 34 11 22z" fill="#382d6f" opacity=".92"/><path d="m765 18 101 56-106 56z" fill="#3a2f74" opacity=".92"/><path d="m855 52 143-8-132 30z" fill="#3e327b" opacity=".92"/><path d="m998 44-1 64-131-34z" fill="#3e327c" opacity=".92"/><path d="m998 44 125-37-87 129z" fill="#382c6e" opacity=".92"/><path d="m998 44 38 92-39-28z" fill="#362b6b" opacity=".92"/><path d="m1123 7 118 36-205 93z" fill="#3f337e" opacity=".92"/><path d="m1241 43-28 59-177 34z" fill="#3a2f74" opacity=".92"/><path d="m1241 43 99-42-39 122z" fill="#3f327c" opacity=".92"/><path d="m1241 43 60 80-88-21z" fill="#40337e" opacity=".92"/><path d="m1340 1 75-1-114 123z" fill="#3a2e72" opacity=".92"/><path d="m1415 0-12 147-102-24z" fill="#3e327c" opacity=".92"/><path d="m1415 0h168l12 156z" fill="#3b3076" opacity=".92"/><path d="m1415 0 180 156-192-9z" fill="#413480" opacity=".92"/><path d="m1583 0h56l-44 156z" fill="#413481" opacity=".92"/><path d="m1639 0 59 104-103 52z" fill="#3f337e" opacity=".92"/><path d="m1639 0h210l-101 173z" fill="#40337f" opacity=".92"/><path d="m1639 0 109 173-50-69z" fill="#413481" opacity=".92"/><path d="m1849 0h71l-172 173z" fill="#3c3076" opacity=".92"/><path d="m1920 0v112l-172 61z" fill="#433685" opacity=".92"/><path d="m49 152 78-1-127 93z" fill="#322862" opacity=".92"/><path d="m127 151-8 45-119 48z" fill="#352b6a" opacity=".92"/><path d="m127 151 98-60 11 168z" fill="#322864" opacity=".92"/><path d="m127 151 109 108-117-63z" fill="#322863" opacity=".92"/><path d="m225 91 130 6-119 162z" fill="#352b6a" opacity=".92"/><path d="m355 97 20 151-139 11z" fill="#3b2f75" opacity=".92"/><path d="m355 97 114 13-30 129z" fill="#3a2e72" opacity=".92"/><path d="m355 97 84 142-64 9z" fill="#342967" opacity=".92"/><path d="m469 110 179 3-209 126z" fill="#362c6c" opacity=".92"/><path d="m648 113-39 174-170-48z" fill="#3a2e73" opacity=".92"/><path d="m648 113 112 17 1 165z" fill="#352a69" opacity=".92"/><path d="m648 113 113 182-152-8z" fill="#3f327c" opacity=".92"/><path d="m760 130 106-56-105 221z" fill="#362c6c" opacity=".92"/><path d="m866 74-5 173-100 48z" fill="#382d6f" opacity=".92"/><path d="m866 74 131 34-42 144z" fill="#362b6a" opacity=".92"/><path d="m866 74 89 178-94-5z" fill="#3f327d" opacity=".92"/><path d="m997 108 39 28-81 116z" fill="#40337f" opacity=".92"/><path d="m1036 136 22 157-103-41z" fill="#392e71" opacity=".92"/><path d="m1036 136 177-34-15 155z" fill="#413482" opacity=".92"/><path d="m1036 136 162 121-140 36z" fill="#372c6e" opacity=".92"/><path d="m1213 102 88 21-103 134z" fill="#3a2e73" opacity=".92"/><path d="m1301 123 25 127-128 7z" fill="#3b2f75" opacity=".92"/><path d="m1301 123 102 24 48 141z" fill="#392e72" opacity=".92"/><path d="m1301 123 150 165-125-38z" fill="#3e327c" opacity=".92"/><path d="m1403 147 192 9-144 132z" fill="#443687" opacity=".92"/><path d="m1595 156-87 102-57 30z" fill="#433585" opacity=".92"/><path d="m1595 156 103-52-45 179z" fill="#3d317a" opacity=".92"/><path d="m1595 156 58 127-145-25z" fill="#3f327d" opacity=".92"/><path d="m1698 104 50 69-95 110z" fill="#413481" opacity=".92"/><path d="m1748 173 13 116-108-6z" fill="#423584" opacity=".92"/><path d="m1748 173 172-61-49 163z" fill="#3b2f76" opacity=".92"/><path d="m1748 173 123 102-110 14z" fill="#3f337e" opacity=".92"/><path d="m0 244 119-48-41 200z" fill="#382d6f" opacity=".92"/><path d="m0 244 78 152-67-6z" fill="#382d6f" opacity=".92"/><path d="m119 196 117 63-158 137z" fill="#362b6c" opacity=".92"/><path d="m236 259 28 100-186 37z" fill="#3a2e72" opacity=".92"/><path d="m236 259 139-11-10 75z" fill="#342967" opacity=".92"/><path d="m236 259 129 64-101 36z" fill="#372c6d" opacity=".92"/><path d="m375 248 64-9-74 84z" fill="#382d70" opacity=".92"/><path d="m439 239 47 95-121-11z" fill="#3e327b" opacity=".92"/><path d="m439 239 170 48 44 33z" fill="#372c6d" opacity=".92"/><path d="m439 239 214 81-167 14z" fill="#372c6d" opacity=".92"/><path d="m609 287 152 8-108 25z" fill="#3e317b" opacity=".92"/><path d="m761 295-16 99-92-74z" fill="#362b6b" opacity=".92"/><path d="m761 295 100-48-18 144z" fill="#3e317a" opacity=".92"/><path d="m761 295 82 96-98 3z" fill="#3f337e" opacity=".92"/><path d="m861 247 94 5-112 139z" fill="#392e71" opacity=".92"/><path d="m955 252 10 144-122-5z" fill="#3a2e73" opacity=".92"/><path d="m955 252 103 41 36 44z" fill="#3f327d" opacity=".92"/><path d="m955 252 139 85-129 59z" fill="#3f337e" opacity=".92"/><path d="m1058 293 140-36-104 80z" fill="#413482" opacity=".92"/><path d="m1198 257 18 99-122-19z" fill="#3b2f75" opacity=".92"/><path d="m1198 257 128-7 24 94z" fill="#3d3179" opacity=".92"/><path d="m1198 257 152 87-134 12z" fill="#3f327c" opacity=".92"/><path d="m1326 250 125 38-101 56z" fill="#392e71" opacity=".92"/><path d="m1451 288 4 119-105-63z" fill="#443687" opacity=".92"/><path d="m1451 288 57-30 79 111z" fill="#3c3077" opacity=".92"/><path d="m1451 288 136 81-132 38z" fill="#3a2f74" opacity=".92"/><path d="m1508 258 145 25-66 86z" fill="#453789" opacity=".92"/><path d="m1653 283 61 83-127 3z" fill="#3c3078" opacity=".92"/><path d="m1653 283 108 6 87 67z" fill="#3c3078" opacity=".92"/><path d="m1653 283 195 73-134 10z" fill="#3c3076" opacity=".92"/><path d="m1761 289 110-14-23 81z" fill="#413482" opacity=".92"/><path d="m1871 275 49 55-72 26z" fill="#423584" opacity=".92"/><path d="m11 390 67 6-78 135z" fill="#3c3078" opacity=".92"/><path d="m78 396 21 30-99 105z" fill="#352b6a" opacity=".92"/><path d="m78 396 186-37-75 85z" fill="#372c6d" opacity=".92"/><path d="m78 396 111 48-90-18z" fill="#342966" opacity=".92"/><path d="m264 359 101-36-176 121z" fill="#372c6e" opacity=".92"/><path d="m365 323 23 178-199-57z" fill="#372c6e" opacity=".92"/><path d="m365 323 121 11-3 193z" fill="#3c3078" opacity=".92"/><path d="m365 323 118 204-95-26z" fill="#3b2f76" opacity=".92"/><path d="m486 334 167-14-170 207z" fill="#3d3179" opacity=".92"/><path d="m653 320-42 167-128 40z" fill="#372c6d" opacity=".92"/><path d="m653 320 92 74-34 56z" fill="#362b6b" opacity=".92"/><path d="m653 320 58 130-100 37z" fill="#3d317a" opacity=".92"/><path d="m745 394 98-3-132 59z" fill="#3c3077" opacity=".92"/><path d="m843 391-25 122-107-63z" fill="#3c3078" opacity=".92"/><path d="m843 391 122 5 2 88z" fill="#413480" opacity=".92"/><path d="m843 391 124 93-149 29z" fill="#3f337e" opacity=".92"/><path d="m965 396 129-59-127 147z" fill="#3a2e73" opacity=".92"/><path d="m1094 337-4 186-123-39z" fill="#382d6f" opacity=".92"/><path d="m1094 337 122 19 34 132z" fill="#3e327c" opacity=".92"/><path d="m1094 337 156 151-160 35z" fill="#3d3179" opacity=".92"/><path d="m1216 356 134-12-100 144z" fill="#433686" opacity=".92"/><path d="m1350 344 18 136-118 8z" fill="#3b2f75" opacity=".92"/><path d="m1350 344 105 63 1 102z" fill="#413480" opacity=".92"/><path d="m1350 344 106 165-88-29z" fill="#3b2f75" opacity=".92"/><path d="m1455 407 132-38-131 140z" fill="#3c3078" opacity=".92"/><path d="m1587 369-78 162-53-22z" fill="#3b2f75" opacity=".92"/><path d="m1587 369 127-3-52 99z" fill="#453788" opacity=".92"/><path d="m1587 369 75 96-153 66z" fill="#443687" opacity=".92"/><path d="m1714 366 134-10-186 109z" fill="#453788" opacity=".92"/><path d="m1848 356-45 172-141-63z" fill="#40337f" opacity=".92"/><path d="m1848 356 72-26-43 151z" fill="#423583" opacity=".92"/><path d="m1848 356 29 125-74 47z" fill="#453788" opacity=".92"/><path d="m0 531 99-105 66 184z" fill="#332966" opacity=".92"/><path d="m0 531 165 79-132 26z" fill="#3c3077" opacity=".92"/><path d="m99 426 90 18-24 166z" fill="#3a2e72" opacity=".92"/><path d="m189 444 29 158-53 8z" fill="#362b6b" opacity=".92"/><path d="m189 444 199 57-60 98z" fill="#342a68" opacity=".92"/><path d="m189 444 139 155-110 3z" fill="#362b6b" opacity=".92"/><path d="m388 501 95 26-155 72z" fill="#3a2e73" opacity=".92"/><path d="m483 527 49 111-204-39z" fill="#372c6d" opacity=".92"/><path d="m483 527 128-40-5 66z" fill="#3e317a" opacity=".92"/><path d="m483 527 123 26-74 85z" fill="#3f327d" opacity=".92"/><path d="m611 487 100-37-105 103z" fill="#3d317a" opacity=".92"/><path d="m711 450 37 129-142-26z" fill="#3a2e73" opacity=".92"/><path d="m711 450 107 63 30 79z" fill="#3f337e" opacity=".92"/><path d="m711 450 137 142-100-13z" fill="#3d3179" opacity=".92"/><path d="m818 513 149-29-119 108z" fill="#3a2f74" opacity=".92"/><path d="m967 484-50 85-69 23z" fill="#413481" opacity=".92"/><path d="m967 484 123 39 30 131z" fill="#3d3078" opacity=".92"/><path d="m967 484 153 170-203-85z" fill="#3d317a" opacity=".92"/><path d="m1090 523 160-35-130 166z" fill="#3e327b" opacity=".92"/><path d="m1250 488-53 75-77 91z" fill="#423583" opacity=".92"/><path d="m1250 488 118-8-46 66z" fill="#443686" opacity=".92"/><path d="m1250 488 72 58-125 17z" fill="#413481" opacity=".92"/><path d="m1368 480 88 29-134 37z" fill="#3d317a" opacity=".92"/><path d="m1456 509-60 36-74 1z" fill="#3c3077" opacity=".92"/><path d="m1456 509 53 22 53 88z" fill="#40337e" opacity=".92"/><path d="m1456 509 106 110-166-74z" fill="#40337f" opacity=".92"/><path d="m1509 531 153-66-100 154z" fill="#3b3076" opacity=".92"/><path d="m1662 465 32 187-132-33z" fill="#40337f" opacity=".92"/><path d="m1662 465 141 63-48 95z" fill="#47398d" opacity=".92"/><path d="m1662 465 93 158-61 29z" fill="#423583" opacity=".92"/><path d="m1803 528 74-47-122 142z" fill="#413482" opacity=".92"/><path d="m1877 481 43 89-165 53z" fill="#3d317a" opacity=".92"/><path d="m33 636 132-26-165 70z" fill="#352a69" opacity=".92"/><path d="m165 610-21 60-144 10z" fill="#372c6d" opacity=".92"/><path d="m165 610 53-8 63 132z" fill="#3a2e73" opacity=".92"/><path d="m165 610 116 124-137-64z" fill="#372c6d" opacity=".92"/><path d="m218 602 110-3-47 135z" fill="#3c3078" opacity=".92"/><path d="m328 599 11 151-58-16z" fill="#362b6b" opacity=".92"/><path d="m328 599 204 39-11 108z" fill="#3f337e" opacity=".92"/><path d="m328 599 193 147-182 4z" fill="#3b2f76" opacity=".92"/><path d="m532 638 74-85-85 193z" fill="#3f337e" opacity=".92"/><path d="m606 553-16 131-69 62z" fill="#3e317b" opacity=".92"/><path d="m606 553 142 26-83 126z" fill="#3a2e73" opacity=".92"/><path d="m606 553 59 152-75-21z" fill="#372c6d" opacity=".92"/><path d="m748 579 100 13-183 113z" fill="#3b2f76" opacity=".92"/><path d="m848 592 22 147-205-34z" fill="#3d317a" opacity=".92"/><path d="m848 592 69-23 61 194z" fill="#433585" opacity=".92"/><path d="m848 592 130 171-108-24z" fill="#413482" opacity=".92"/><path d="m917 569 203 85-142 109z" fill="#40337f" opacity=".92"/><path d="m1120 654 15 73-157 36z" fill="#443687" opacity=".92"/><path d="m1120 654 77-91 36 194z" fill="#3b2f75" opacity=".92"/><path d="m1120 654 113 103-98-30z" fill="#3b3076" opacity=".92"/><path d="m1197 563 125-17-89 211z" fill="#3e327b" opacity=".92"/><path d="m1322 546-40 188-49 23z" fill="#403480" opacity=".92"/><path d="m1322 546 74-1 17 180z" fill="#3e327b" opacity=".92"/><path d="m1322 546 91 179-131 9z" fill="#433585" opacity=".92"/><path d="m1396 545 166 74-149 106z" fill="#423584" opacity=".92"/><path d="m1562 619 18 62-167 44z" fill="#3e317b" opacity=".92"/><path d="m1562 619 132 33 7 101z" fill="#46388c" opacity=".92"/><path d="m1562 619 139 134-121-72z" fill="#40337e" opacity=".92"/><path d="m1694 652 61-29-54 130z" fill="#40337f" opacity=".92"/><path d="m1755 623 54 79-108 51z" fill="#3f327d" opacity=".92"/><path d="m1755 623 165-53-45 148z" fill="#423583" opacity=".92"/><path d="m1755 623 120 95-66-16z" fill="#483a90" opacity=".92"/><path d="m0 680 144-10-62 215z" fill="#3b2f74" opacity=".92"/><path d="m0 680 82 205-52-80z" fill="#3d3179" opacity=".92"/><path d="m144 670 137 64-199 151z" fill="#3b3076" opacity=".92"/><path d="m281 734 4 126-203 25z" fill="#3f337e" opacity=".92"/><path d="m281 734 58 16 5 99z" fill="#392e72" opacity=".92"/><path d="m281 734 63 115-59 11z" fill="#3e327b" opacity=".92"/><path d="m339 750 182-4-177 103z" fill="#3e327c" opacity=".92"/><path d="m521 746-44 88-133 15z" fill="#40337f" opacity=".92"/><path d="m521 746 69-62 58 120z" fill="#3d3078" opacity=".92"/><path d="m521 746 127 58-171 30z" fill="#3f327d" opacity=".92"/><path d="m590 684 75 21-17 99z" fill="#372c6e" opacity=".92"/><path d="m665 705 66 183-83-84z" fill="#3b2f75" opacity=".92"/><path d="m665 705 205 34-60 94z" fill="#3a2e72" opacity=".92"/><path d="m665 705 145 128-79 55z" fill="#382d70" opacity=".92"/><path d="m870 739 108 24-168 70z" fill="#3a2e73" opacity=".92"/><path d="m978 763-72 35-96 35z" fill="#40337f" opacity=".92"/><path d="m978 763 157-36-61 67z" fill="#413482" opacity=".92"/><path d="m978 763 96 31-168 4z" fill="#423583" opacity=".92"/><path d="m1135 727 98 30-159 37z" fill="#433686" opacity=".92"/><path d="m1233 757-82 134-77-97z" fill="#3b2f75" opacity=".92"/><path d="m1233 757 49-23 27 133z" fill="#3e327c" opacity=".92"/><path d="m1233 757 76 110-158 24z" fill="#413481" opacity=".92"/><path d="m1282 734 131-9-104 142z" fill="#423583" opacity=".92"/><path d="m1413 725 17 158-121-16z" fill="#3f327c" opacity=".92"/><path d="m1413 725 167-44-72 107z" fill="#3d3179" opacity=".92"/><path d="m1413 725 95 63-78 95z" fill="#40337e" opacity=".92"/><path d="m1580 681 121 72-193 35z" fill="#3e317b" opacity=".92"/><path d="m1701 753-11 92-182-57z" fill="#46388c" opacity=".92"/><path d="m1701 753 108-51-23 170z" fill="#3f327c" opacity=".92"/><path d="m1701 753 85 119-96-27z" fill="#413481" opacity=".92"/><path d="m1809 702 66 16-89 154z" fill="#413482" opacity=".92"/><path d="m1875 718 28 124-117 30z" fill="#40337f" opacity=".92"/><path d="m30 805 52 80-82 35z" fill="#392e72" opacity=".92"/><path d="m82 885 46 79-128-44z" fill="#3a2f74" opacity=".92"/><path d="m82 885 203-25-27 124z" fill="#3c3076" opacity=".92"/><path d="m82 885 176 99-130-20z" fill="#382d6f" opacity=".92"/><path d="m285 860 59-11-86 135z" fill="#3a2e73" opacity=".92"/><path d="m344 849 64 77-150 58z" fill="#3f337e" opacity=".92"/><path d="m344 849 133-15-33 146z" fill="#413480" opacity=".92"/><path d="m344 849 100 131-36-54z" fill="#3a2f74" opacity=".92"/><path d="m477 834 171-30-204 176z" fill="#382d6f" opacity=".92"/><path d="m648 804-37 127-167 49z" fill="#423584" opacity=".92"/><path d="m648 804 83 84-11 96z" fill="#413481" opacity=".92"/><path d="m648 804 72 180-109-53z" fill="#413480" opacity=".92"/><path d="m731 888 79-55-90 151z" fill="#3b3076" opacity=".92"/><path d="m810 833 18 130-108 21z" fill="#40337f" opacity=".92"/><path d="m810 833 96-35 75 136z" fill="#3b2f75" opacity=".92"/><path d="m810 833 171 101-153 29z" fill="#3e327b" opacity=".92"/><path d="m906 798 168-4-93 140z" fill="#40337f" opacity=".92"/><path d="m1074 794 37 201-130-61z" fill="#3e327b" opacity=".92"/><path d="m1074 794 77 97 2 84z" fill="#453788" opacity=".92"/><path d="m1074 794 79 181-42 20z" fill="#423583" opacity=".92"/><path d="m1151 891 158-24-156 108z" fill="#413480" opacity=".92"/><path d="m1309 867 7 42-163 66z" fill="#3f327d" opacity=".92"/><path d="m1309 867 121 16-20 104z" fill="#3e327c" opacity=".92"/><path d="m1309 867 101 120-94-78z" fill="#413482" opacity=".92"/><path d="m1430 883 78-95-98 199z" fill="#46388b" opacity=".92"/><path d="m1508 788 19 122-117 77z" fill="#47398d" opacity=".92"/><path d="m1508 788 182 57 17 129z" fill="#46388b" opacity=".92"/><path d="m1508 788 199 186-180-64z" fill="#413481" opacity=".92"/><path d="m1690 845 96 27-79 102z" fill="#47398e" opacity=".92"/><path d="m1786 872 66 39-145 63z" fill="#453789" opacity=".92"/><path d="m1786 872 117-30 17 159z" fill="#413482" opacity=".92"/><path d="m1786 872 134 129-68-90z" fill="#443687" opacity=".92"/><path d="m0 920 128 44-2 116z" fill="#3b2f76" opacity=".92"/><path d="m0 920 126 160-99-31z" fill="#3d317a" opacity=".92"/><path d="m128 964 130 20-132 96z" fill="#3a2f74" opacity=".92"/><path d="m258 984 13 43-145 53z" fill="#3a2e73" opacity=".92"/><path d="m258 984 150-58-87 154z" fill="#382d6f" opacity=".92"/><path d="m258 984 63 96-50-53z" fill="#392e72" opacity=".92"/><path d="m408 926 36 54-123 100z" fill="#413480" opacity=".92"/><path d="m444 980 48 72-171 28z" fill="#3a2f74" opacity=".92"/><path d="m444 980 167-49 34 149z" fill="#3e327b" opacity=".92"/><path d="m444 980 201 100-153-28z" fill="#3b2f75" opacity=".92"/><path d="m611 931 109 53-75 96z" fill="#3c3078" opacity=".92"/><path d="m720 984-38 61-37 35z" fill="#3a2f74" opacity=".92"/><path d="m720 984 108-21 41 117z" fill="#423583" opacity=".92"/><path d="m720 984 149 96-187-35z" fill="#3c3078" opacity=".92"/><path d="m828 963 153-29-112 146z" fill="#403380" opacity=".92"/><path d="m981 934-53 140-59 6z" fill="#413482" opacity=".92"/><path d="m981 934 130 61-52 84z" fill="#3f337e" opacity=".92"/><path d="m981 934 78 145-131-5z" fill="#413481" opacity=".92"/><path d="m1111 995 42-20-94 104z" fill="#3f327d" opacity=".92"/><path d="m1153 975 60 103-154 1z" fill="#40337f" opacity=".92"/><path d="m1153 975 163-66-41 165z" fill="#3d3179" opacity=".92"/><path d="m1153 975 122 99-62 4z" fill="#453788" opacity=".92"/><path d="m1316 909 94 78-135 87z" fill="#423583" opacity=".92"/><path d="m1410 987 14 61-149 26z" fill="#443788" opacity=".92"/><path d="m1410 987 117-77 22 137z" fill="#443788" opacity=".92"/><path d="m1410 987 139 60-125 1z" fill="#47398c" opacity=".92"/><path d="m1527 910 180 64-158 73z" fill="#46388c" opacity=".92"/><path d="m1707 974-49 106-109-33z" fill="#443787" opacity=".92"/><path d="m1707 974 145-63-44 169z" fill="#443687" opacity=".92"/><path d="m1707 974 101 106h-150z" fill="#46388b" opacity=".92"/><path d="m1852 911 68 90-112 79z" fill="#403380" opacity=".92"/><path d="m1920 1001v77l-112 2z" fill="#443788" opacity=".92"/></svg>