<svg height="336" viewBox="0 0 317.04001 336" width="317.04001" xmlns="http://www.w3.org/2000/svg"><g fill="#f2571a" transform="matrix(.13333333 0 0 -.13333333 0 336)"><path d="m283.84 743.059c-65.969 0-102.121 51.363-120.512 91.961l-29.801-10.782 23.457-110.359h24.735l7.617 19.66c25.371-17.117 54.543-29.168 91.328-29.168 63.418 0 143.34 35.508 143.34 129.379 0 139.531-215.012 116.059-215.012 208.03 0 34.26 21.567 61.52 67.863 61.52 53.282 0 90.071-42.49 107.825-81.18l29.804 10.78-25.363 99.58h-25.371l-7.617-20.3c-8.242 10.14-33.613 29.81-78.645 29.81-67.222 0-125.574-38.05-125.574-114.16 0-128.748 215.012-107.189 215.012-208.67 0-53.269-41.867-76.101-83.086-76.101"/><path d="m682.148 928.891c8.243 17.757 20.293 23.461 36.153 27.269v24.102h-97.039v-24.102l29.812-6.98-71.672-163.629-72.937 162.988 31.074 7.621v24.102h-116.062v-24.102c26.003-6.351 29.812-10.781 37.421-27.91l96.407-214.371-58.117-110.617c4.433-15.211 21.562-24.102 41.855-15.211l42.258 119.488z"/><path d="m823.594 904.789c13.32 16.492 33.625 33.609 53.281 33.609 12.688 0 22.832-9.507 25.371-19.027 16.484 0 32.981 13.328 32.981 35.52 0 23.468-19.661 34.89-38.059 34.89-38.059 0-62.156-31.722-76.738-57.082l3.164 57.082-22.196 3.789c-13.957-20.922-29.171-31.07-60.253-36.14v-22.211l31.714-8.867v-182.024l-25.371-6.348v-24.101h107.825v24.101l-31.719 7.622z"/><path d="m1100.77 783.02c-8.25-24.739-31.08-45.04-61.52-45.04-28.55 0-43.129 17.758-43.129 38.059 0 28.539 25.999 38.051 42.489 41.231l62.16 12.039zm-76.11 62.781c-49.472-8.879-77.375-33.61-77.375-78.012 0-28.539 24.102-63.418 77.375-63.418 34.25 0 62.79 12.68 77.38 34.879.63-16.488 13.31-32.98 41.22-32.98 29.18 0 46.94 23.468 48.84 27.91l-6.35 12.05c-2.53-1.902-9.51-5.082-18.39-5.082-9.51 0-15.86 7.614-15.86 17.762v147.781c0 46.93-23.46 83.09-85.61 83.09-53.28 0-109.73-37.429-110.995-95.14 32.339-17.77 67.225 1.898 58.985 40.578 10.14 11.429 22.19 21.582 46.3 21.582 24.73 0 40.59-17.129 40.59-39.961v-57.078z"/><path d="m1320.22 704.371c67.23 0 105.29 36.149 114.8 77.367l-13.32 8.25c-18.39-23.468-45.03-40.59-81.82-40.59-48.83 0-84.99 36.782-84.99 93.231 0 67.859 37.42 107.82 84.99 107.82 33.62 0 50.75-17.121 60.89-42.488 17.76.629 36.15 12.051 36.15 31.07 0 34.891-41.86 50.75-79.91 50.75-74.21 0-155.39-58.992-155.39-159.832 0-81.82 55.81-125.578 118.6-125.578"/><path d="m1492.11 767.16c0-35.519 30.44-62.789 70.4-62.789 39.33 0 75.48 22.828 107.19 53.277l-3.18-45.668 22.2-3.808c17.13 13.957 39.33 22.84 60.25 27.898v24.121h-31.7v220.071h-82.46v-24.102l31.71-7.621v-161.719c-32.34-28.539-66.59-36.789-85.62-36.789-24.73 0-38.05 14.59-38.05 41.86v188.371h-82.45v-24.102l31.71-7.621z"/><path d="m1832.07 926.98c0 15.231 12.05 32.36 39.95 32.36 39.96 0 60.89-32.988 69.13-51.379l19.04 4.43-12.06 67.871h-19.66l-2.53-8.25c-11.42 8.879-32.98 17.769-59.62 17.769-46.3 0-82.45-34.25-82.45-76.109 0-89.434 143.97-79.293 143.97-138.274 0-17.117-13.95-40.589-48.84-40.589-39.32 0-70.4 29.171-85.62 60.882l-19.02-4.429 12.68-77.383h15.85l6.35 19.66c10.78-13.949 41.85-29.168 69.13-29.168 50.74 0 96.41 35.508 96.41 88.16 0 93.867-142.71 80.547-142.71 134.449"/><path d="m2132.07 957.43c26.64 0 52.01-20.93 52.01-71.032l-123.68-16.5c1.9 47.571 24.1 87.532 71.67 87.532zm-8.88-253.059c61.53 0 102.75 34.238 113.53 83.078l-13.32 8.242c-19.66-29.171-46.3-46.293-84.98-46.293-44.4 0-76.75 38.692-79.29 87.524l171.25 22.199 10.15 15.231c0 81.179-48.21 115.429-105.92 115.429-61.52 0-128.12-47.57-128.12-158.57 0-81.813 53.91-126.84 116.7-126.84"/><path d="m755.41 497.609c0-17.769 13.953-31.718 31.707-31.718 17.766 0 31.711 13.949 31.711 31.718 0 17.75-13.945 31.711-31.711 31.711-17.754 0-31.707-13.961-31.707-31.711"/><path d="m1893.27 465.891c17.76 0 31.71 13.949 31.71 31.718 0 17.75-13.95 31.711-31.71 31.711s-31.71-13.961-31.71-31.711c0-17.769 13.95-31.718 31.71-31.718"/><path d="m290.48 533.762 32.989-6.981v-227.691c0-79.281-44.406-125.57-112.27-125.57-84.988 0-118.6013 48.82-118.6013 129.371v223.89l32.9763 6.981v27.898h-125.574v-27.898l32.9805-6.981v-232.133c0-104.019 60.8867-164.269 166.8045-164.269 105.918 0 166.809 60.25 166.809 164.269v232.133l32.976 6.981v27.898h-109.09z"/><path d="m663.43 356.172c0 35.519-30.442 62.789-70.403 62.789-39.316 0-75.468-22.832-107.175-53.281l3.164 53.281-22.2 3.801c-13.957-20.922-29.168-31.071-60.253-36.153v-22.199l31.718-8.871v-182.019l-25.371-6.348v-24.102h107.813v24.102l-31.707 7.609v161.719c32.343 28.551 66.597 36.801 85.625 36.801 24.734 0 38.054-14.59 38.054-41.86v-157.921l-25.371-6.348v-24.102h107.824v24.102l-31.718 7.609z"/><path d="m809.316 418.961-22.199 3.801c-13.953-20.922-29.168-31.071-60.254-36.153v-22.199l31.723-8.871v-181.398l-28.547-6.969v-24.102h107.82v24.102l-28.543 6.969z"/><path d="m1141.65 409.441h-97.03v-24.101l29.8-6.969-71.67-163.633-72.926 162.992 31.074 7.61v24.101h-116.062v-24.101c26.004-6.34 29.168-10.781 37.422-27.899l99.566-220.711h22.836l100.85 221.352c8.24 17.746 20.29 23.457 36.14 27.258z"/><path d="m1193.05 299.09c1.89 47.57 24.09 87.519 71.67 87.519 26.63 0 52-20.929 52-71.027zm180.11 4.441c0 81.18-48.2 115.43-105.91 115.43-61.53 0-128.12-47.563-128.12-158.563 0-81.816 53.92-126.847 116.7-126.847 61.52 0 102.74 34.25 113.54 83.09l-13.32 8.238c-19.67-29.18-46.3-46.297-85-46.297-44.39 0-76.74 38.699-79.27 87.52l171.24 22.207z"/><path d="m1553.94 418.961c-38.06 0-62.16-31.711-76.74-57.09l3.16 57.09-22.2 3.801c-13.95-20.922-29.17-31.071-60.25-36.153v-22.199l31.72-8.871v-182.019l-25.37-6.348v-24.102h107.82v24.102l-31.72 7.609v159.188c13.32 16.492 33.61 33.621 53.28 33.621 12.69 0 22.83-9.508 25.37-19.031 16.49 0 32.98 13.312 32.98 35.511 0 23.469-19.67 34.891-38.05 34.891"/><path d="m1661.77 356.172c0 15.226 12.05 32.348 39.95 32.348 39.96 0 60.89-32.981 69.13-51.379l19.03 4.441-12.05 67.859h-19.67l-2.53-8.242c-11.41 8.883-32.97 17.762-59.61 17.762-46.3 0-82.46-34.25-82.46-76.109 0-89.43 143.97-79.282 143.97-138.262 0-17.129-13.95-40.602-48.83-40.602-39.32 0-70.4 29.184-85.62 60.891l-19.03-4.438 12.69-77.371h15.85l6.35 19.649c10.78-13.938 41.85-29.168 69.13-29.168 50.73 0 96.4 35.519 96.4 88.16 0 93.871-142.7 80.559-142.7 134.461"/><path d="m1915.47 418.961-22.2 3.801c-13.95-20.922-29.18-31.071-60.25-36.153v-22.199l31.71-8.871v-181.398l-28.54-6.969v-24.102h107.82v24.102l-28.54 6.969z"/><path d="m2280.79 409.441v-24.101l29.82-6.969-71.67-163.633-72.94 162.992 31.08 7.61v24.101h-148.43v60.891l-22.19 3.809c-12.06-34.25-34.89-65.969-69.77-72.301v-24.11h41.23v-187.73c0-36.789 25.37-56.449 58.98-56.449 30.44 0 53.28 21.57 60.26 41.859l-13.32 10.149c-6.35-7.61-17.77-15.219-29.82-15.219-16.48 0-25.37 10.781-25.37 30.441v176.949h29.19c17.76 0 32.98-3.171 40.59-20.289l96.4-214.371-64.05-124.32c4.43-15.21094 21.56-24.08984 41.86-15.21094l48.2 133.19094 100.84 221.352c8.24 17.746 20.29 23.457 36.15 27.258v24.101z"/><path d="m1314.01 2177.5c13.83 0 253.75.03 267.58.03v195.02c-4.41 4.21-149.46 143.43-153.63 147.45h-483.065c-4.2-4.16-144.407-143.18-148.657-147.42v-357.72c4.153-4.19 138.442-140.12 142.66-144.36h375.112v-207.43h-247.93v118.24c-13.84 0-256.002 0-269.842-.02v-195.04c4.242-4.22 144.457-143.27 148.657-147.44h483.065c4.17 4.02 149.22 143.24 153.63 147.5v357.64c-4.15 4.2-138.44 140.13-142.66 144.4h-372.85v207.41h247.93z"/></g></svg>